<?xml version="1.0" encoding="UTF-8" standalone="no"?>
<!-- Created with Inkscape (http://www.inkscape.org/) -->

<svg
   xmlns:dc="http://purl.org/dc/elements/1.1/"
   xmlns:cc="http://creativecommons.org/ns#"
   xmlns:rdf="http://www.w3.org/1999/02/22-rdf-syntax-ns#"
   xmlns:svg="http://www.w3.org/2000/svg"
   xmlns="http://www.w3.org/2000/svg"
   xmlns:sodipodi="http://sodipodi.sourceforge.net/DTD/sodipodi-0.dtd"
   xmlns:inkscape="http://www.inkscape.org/namespaces/inkscape"
   width="355"
   height="355"
   viewBox="0 0 355 355.00001"
   version="1.1"
   id="svg8"
   inkscape:version="0.92.4 (5da689c313, 2019-01-14)"
   sodipodi:docname="logo.svg">
  <defs
     id="defs2" />
  <sodipodi:namedview
     id="base"
     pagecolor="#ffffff"
     bordercolor="#666666"
     borderopacity="1.0"
     inkscape:pageopacity="0.0"
     inkscape:pageshadow="2"
     inkscape:zoom="0.7"
     inkscape:cx="191.39637"
     inkscape:cy="190.17974"
     inkscape:document-units="px"
     inkscape:current-layer="layer1"
     showgrid="false"
     units="px"
     inkscape:window-width="1920"
     inkscape:window-height="1057"
     inkscape:window-x="-8"
     inkscape:window-y="-8"
     inkscape:window-maximized="1" />
  <metadata
     id="metadata5">
    <rdf:RDF>
      <cc:Work
         rdf:about="">
        <dc:format>image/svg+xml</dc:format>
        <dc:type
           rdf:resource="http://purl.org/dc/dcmitype/StillImage" />
        <dc:title></dc:title>
      </cc:Work>
    </rdf:RDF>
  </metadata>
  <g
     inkscape:label="Layer 1"
     inkscape:groupmode="layer"
     id="layer1"
     transform="translate(0,-767.51965)">
    <path
       inkscape:connector-curvature="0"
       id="path3863"
       d="m 216.80554,1055.4245 c -6.7176,-6.323 -6.63688,-3.4836 -1.34575,-47.3129 2.59284,-21.4783 -1.03278,-27.5608 -22.55173,-37.8329 -9.50355,-4.53649 -18.65685,-8.2482 -20.34072,-8.2482 -1.68384,0 -7.8379,5.48222 -13.67571,12.18269 -23.40804,26.86721 -48.47418,30.08341 -89.735671,11.51394 -32.302887,-14.53771 -39.147347,-24.29795 -28.156614,-40.15137 2.534886,-3.6563 3.456415,-7.07815 2.047847,-7.60403 -1.408497,-0.52588 -9.318814,-4.32777 -17.578429,-8.44862 -17.9048507,-8.93305 -19.6941797,-14.61408 -8.981259,-28.51528 26.532447,-34.42879 37.498588,-46.7532 42.688813,-47.97625 3.236198,-0.76259 11.413124,0.48304 18.170957,2.7681 l 12.287045,4.15466 -14.105046,-1.60249 -14.105011,-1.60248 -20.708205,26.28008 c -11.389499,14.45407 -20.708171,28.06599 -20.708171,30.24872 0,3.59424 11.137353,9.88991 42.321941,23.92345 6.006979,2.70325 19.313097,8.75583 29.569119,13.45019 17.189544,7.86794 19.234634,8.22837 26.159454,4.61047 11.22864,-5.86644 53.47859,-63.26846 50.3419,-68.39601 -0.91093,-1.48906 -6.71627,-2.02171 -12.90083,-1.18364 -9.48856,1.28582 -13.85673,4.35082 -27.9699,19.62553 -14.53517,15.73148 -17.99592,18.10174 -26.42943,18.10174 -10.861157,0 -21.022391,-9.90841 -21.022391,-20.49928 0,-7.48986 41.466671,-50.40979 53.838661,-55.72541 12.63577,-5.429 35.54241,-4.61165 49.44926,1.76447 6.49978,2.98007 27.49092,14.74585 46.64698,26.14619 21.26154,12.65339 37.84559,20.72794 42.57251,20.72794 5.82453,0 12.29904,-4.44348 26.12699,-17.931 20.58041,-20.07357 30.44687,-22.96023 40.65184,-11.89358 10.2241,11.0874 7.41992,20.13373 -12.86325,41.49824 -27.2164,28.66731 -46.81536,35.40207 -74.40472,25.5676 -12.41981,-4.42716 -40.95672,-5.68013 -40.95672,-1.79825 0,1.28676 4.95802,4.59845 11.0178,7.3592 14.20316,6.47078 28.72108,22.79557 32.94768,37.04808 2.63898,8.89912 2.60071,17.08845 -0.18435,39.4817 -3.67288,29.5301 -7.80422,41.5908 -15.23362,44.4711 -8.3292,3.2291 -16.59938,1.7102 -22.88105,-4.2024 z m 3.60704,-204.92294 c -13.02354,-5.72777 -21.59734,-19.81146 -21.36652,-35.09762 0.32753,-21.68493 16.50766,-38.1693 37.48548,-38.19016 21.7799,-0.0215 37.37896,15.94732 37.39786,38.28465 0.0215,28.77983 -27.19181,46.5808 -53.51682,35.00313 z"
       style="fill:#053160;stroke-width:2.74449444"
       sodipodi:nodetypes="cccscscccsccccccscsscscssscssssssscsccccscccs" />
    <text
       xml:space="preserve"
       style="font-style:normal;font-variant:normal;font-weight:normal;font-stretch:normal;font-size:49.17369461px;line-height:1.25;font-family:'Berlin Sans FB';-inkscape-font-specification:'Berlin Sans FB, Normal';font-variant-ligatures:normal;font-variant-caps:normal;font-variant-numeric:normal;font-feature-settings:normal;text-align:center;letter-spacing:0px;word-spacing:0px;writing-mode:lr-tb;text-anchor:middle;fill:#053160;fill-opacity:1;stroke:none;stroke-width:2.63426208"
       x="176.36662"
       y="1112.2377"
       id="text3872"
       transform="scale(1.0000974,0.9999026)"><tspan
         sodipodi:role="line"
         id="tspan3870"
         x="176.36662"
         y="1112.2377"
         style="font-style:normal;font-variant:normal;font-weight:normal;font-stretch:normal;font-size:49.17369461px;font-family:'Berlin Sans FB';-inkscape-font-specification:'Berlin Sans FB, Normal';font-variant-ligatures:normal;font-variant-caps:normal;font-variant-numeric:normal;font-feature-settings:normal;text-align:center;writing-mode:lr-tb;text-anchor:middle;fill:#053160;fill-opacity:1;stroke-width:2.63426208"><tspan
   style="fill:#ff0000"
   id="tspan3874">FUN</tspan>-TASK-<tspan
   style="fill:#ff0000"
   id="tspan3876">TIC</tspan></tspan></text>
  </g>
</svg>
